<?xml version="1.0" ?><!DOCTYPE svg  PUBLIC '-//W3C//DTD SVG 1.1//EN'  'http://www.w3.org/Graphics/SVG/1.1/DTD/svg11.dtd'><svg height="512px" style="shape-rendering:geometricPrecision; text-rendering:geometricPrecision; image-rendering:optimizeQuality; fill-rule:evenodd; clip-rule:evenodd" version="1.1" viewBox="0 0 512 512" width="512px" xml:space="preserve" xmlns="http://www.w3.org/2000/svg" xmlns:xlink="http://www.w3.org/1999/xlink"><defs><style type="text/css">
   <![CDATA[
    .fil9 {fill:#FEFEFE}
    .fil2 {fill:#872F30}
    .fil0 {fill:#983133}
    .fil6 {fill:#D43439}
    .fil1 {fill:#D44C50}
    .fil5 {fill:#E16165}
    .fil3 {fill:#E4666B}
    .fil8 {fill:#E85359}
    .fil4 {fill:#EF8185}
    .fil7 {fill:#F27075}
   ]]>
  </style></defs><g id="Layer_x0020_1"><g id="_429199640"><path class="fil0" d="M324 436c95,-63 143,-95 143,-95 -94,-51 -141,-76 -141,-76 -1,114 -2,171 -2,171z"/><path class="fil1" d="M326 265c-95,63 -143,95 -143,95 94,51 141,76 141,76 1,-114 2,-171 2,-171z"/><path class="fil2" d="M466 341c-95,63 -143,95 -143,95 94,51 141,76 141,76 1,-114 2,-171 2,-171z"/><path class="fil3" d="M183 360c95,-63 143,-95 143,-95 -94,-51 -141,-76 -141,-76 -1,114 -2,171 -2,171z"/><path class="fil4" d="M185 189c-95,63 -143,95 -143,95 94,51 141,76 141,76 1,-114 2,-171 2,-171z"/><path class="fil5" d="M328 94c-95,63 -143,95 -143,95 94,51 141,76 141,76 1,-114 2,-171 2,-171z"/><path class="fil6" d="M468 170c-95,63 -143,95 -143,95 94,51 141,76 141,76 1,-114 2,-171 2,-171z"/><path class="fil7" d="M470 0c-95,63 -143,95 -143,95 94,51 141,76 141,76 1,-114 2,-171 2,-171z"/><path class="fil8" d="M326 266c95,-63 143,-95 143,-95 -94,-51 -141,-76 -141,-76 -1,114 -2,171 -2,171z"/><path class="fil9" d="M294 177l-7 29 -1 0 -8 -29 -12 0 15 48 0 20 9 0 0 -21 16 -46 -12 0zm38 31c0,-4 -1,-8 -4,-10 -3,-3 -4,-4 -8,-4 -5,0 -6,2 -9,4 -3,2 -4,6 -4,10l0 22c0,5 1,8 4,11 3,3 4,4 9,4 5,0 5,-1 8,-4 3,-3 4,-6 4,-11l0 -22 0 0zm34 -15l-8 0 0 34c-1,1 -5,7 -6,7 -1,0 -1,0 -2,-1 0,-1 -1,-1 -1,-3l0 -38 -8 0 0 41c0,3 0,8 2,10 1,1 5,1 8,-1 3,-2 5,-5 7,-9l0 9 8 0 0 -50zm51 102c0,-19 -15,-35 -34,-35l-118 0c-19,0 -34,16 -34,35l0 32c0,19 15,35 34,35l118 0c19,0 34,-16 34,-35l0 -32zm-47 50c-4,0 -7,-1 -9,-4 -2,-2 -3,-6 -3,-10l0 -20c0,-4 1,-11 4,-13 2,-2 6,-4 9,-4 4,0 7,1 9,3 2,2 3,9 3,14l0 8 -16 0 0 11c0,2 0,4 1,5 1,1 2,1 3,1 1,0 2,0 3,-1 1,-1 1,-2 1,-5l0 -2 9 0 0 2c0,5 -1,8 -3,10 -2,2 -5,3 -10,3zm4 -32l0 -2c0,-2 0,-7 -1,-8 -1,-1 -2,-1 -3,-1 -1,0 -2,0 -3,1 -1,1 -1,6 -1,8l0 2 8 0zm-33 32c-2,0 -3,0 -5,-1 -1,-1 -3,-2 -4,-3l0 4 -9 0 0 -67 8 0 0 20c1,-1 3,-2 4,-3 1,-1 3,-1 4,-1 3,0 5,1 6,3 1,2 2,5 2,9l0 30c0,3 -1,6 -2,8 -1,2 -3,3 -6,3zm0 -40c0,-2 -1,-3 -2,-4 -1,-1 -2,-1 -3,-1 -1,0 -1,0 -2,0 -1,0 -2,1 -2,1l0 33c1,1 2,1 3,2 1,0 1,1 2,1 1,0 2,0 2,-1 0,-1 2,-2 2,-3l0 -28 0 0zm-34 33c-2,2 -3,4 -5,5 -2,1 -3,1 -5,1 -2,0 -4,-1 -5,-2 -1,-1 -2,-3 -2,-6l0 -42 9 0 0 39c0,1 0,2 1,2 0,0 1,1 2,1 1,0 2,0 3,-1 1,-1 2,-1 3,-2l0 -39 8 0 0 51 -9 0 0 -6 0 0zm-25 6l-9 0 0 -59 -8 0 0 -8 25 0 0 8 -9 0 0 59zm38 -110c-1,0 -2,0 -3,-1 -1,-1 -1,-2 -1,-3l0 -24c0,-1 0,-2 1,-3 1,-1 2,-1 3,-1 1,0 2,0 3,1 1,1 1,2 1,3l0 24c0,1 0,3 -1,3 -1,1 -1,1 -3,1z"/></g></g></svg>